<svg width="16" height="16" fill="none" xmlns="http://www.w3.org/2000/svg"><g clip-path="url(#a)"><g clip-path="url(#b)"><g clip-path="url(#c)"><path d="M0 0h16v16H0V0z" fill="#fff"/><path d="M5.29 7.626a.82.82 0 0 0 .761.87H6.1c.448 0 .81-.37.807-.828a.813.813 0 0 0-.81-.824.816.816 0 0 0-.806.782zM2.275 7.413A.261.261 0 0 0 2 7.665a.265.265 0 0 0 .247.281.263.263 0 0 0 .275-.252.265.265 0 0 0-.247-.28zM5.239 2.831a.273.273 0 0 0 .115-.36.261.261 0 0 0-.352-.117.269.269 0 0 0-.115.356c.064.134.22.19.352.121zM6.058 4.293a.417.417 0 0 0 .179-.553.4.4 0 0 0-.54-.183.417.417 0 0 0-.18.553.4.4 0 0 0 .54.183zM3.3 5.297a.33.33 0 0 0 .46-.098.347.347 0 0 0-.096-.47.33.33 0 0 0-.46.097.343.343 0 0 0 .095.471zM3.789 7.266a.405.405 0 0 0-.426.39.408.408 0 0 0 .381.434.405.405 0 0 0 .426-.389.41.41 0 0 0-.381-.435zM3.344 10.036a.345.345 0 0 0-.147.458.33.33 0 0 0 .448.15.345.345 0 0 0 .147-.457.331.331 0 0 0-.448-.15zM4.912 6.412c.22.148.515.085.656-.14a.488.488 0 0 0-.137-.67.465.465 0 0 0-.656.14.49.49 0 0 0 .137.67zM9.888 4.26a.4.4 0 0 0 .56-.117.42.42 0 0 0-.115-.573.4.4 0 0 0-.56.118.414.414 0 0 0 .115.572zM10.713 2.805a.257.257 0 0 0 .362-.078.27.27 0 0 0-.077-.37.258.258 0 0 0-.361.075.28.28 0 0 0 .076.373zM9.949 6.838a.813.813 0 0 0-.851.778.818.818 0 0 0 .761.87h.045c.445 0 .806-.37.806-.828a.812.812 0 0 0-.761-.82zM6.323 6.354a.808.808 0 0 0 .723.454c.445 0 .807-.37.807-.827a.848.848 0 0 0-.087-.373.798.798 0 0 0-1.084-.366c-.4.209-.56.706-.359 1.112zM12.656 5.297a.345.345 0 0 0 .144-.458.33.33 0 0 0-.448-.147.345.345 0 0 0-.147.455.335.335 0 0 0 .45.15zM10.608 5.559a.49.49 0 0 0-.211.65.47.47 0 0 0 .636.217.49.49 0 0 0 .212-.651.473.473 0 0 0-.637-.216zM7.968 2.68A.34.34 0 0 0 8.006 2a.337.337 0 0 0-.352.318c-.01.19.132.35.314.363zM7.965 4.816a.475.475 0 0 0 .499-.457.478.478 0 0 0-.448-.51.475.475 0 0 0-.5.457.48.48 0 0 0 .449.51zM5.392 9.775a.49.49 0 0 0 .211-.651.47.47 0 0 0-.636-.216.49.49 0 0 0-.212.65.47.47 0 0 0 .637.217zM8.272 5.526a.834.834 0 0 0 .234 1.142.795.795 0 0 0 1.116-.24.834.834 0 0 0-.233-1.14.79.79 0 0 0-.442-.135.806.806 0 0 0-.675.373zM9.677 8.98a.798.798 0 0 0-1.085-.367.833.833 0 0 0-.358 1.11.798.798 0 0 0 1.084.365.83.83 0 0 0 .359-1.108zM11.088 8.92a.465.465 0 0 0-.656.142.488.488 0 0 0 .137.67c.221.147.516.085.656-.14a.49.49 0 0 0-.137-.671zM12.637 7.681a.408.408 0 0 0-.381-.435.405.405 0 0 0-.426.39.408.408 0 0 0 .381.435.41.41 0 0 0 .426-.39zM13.753 7.387a.261.261 0 0 0-.275.252.265.265 0 0 0 .247.281.263.263 0 0 0 .275-.252.267.267 0 0 0-.247-.281zM12.7 10.036a.33.33 0 0 0-.46.098.347.347 0 0 0 .096.471.33.33 0 0 0 .46-.098.343.343 0 0 0-.095-.47zM5.283 12.528a.258.258 0 0 0-.361.075.271.271 0 0 0 .073.37.258.258 0 0 0 .362-.075.266.266 0 0 0-.074-.37zM10.761 12.502a.273.273 0 0 0-.115.36c.064.13.224.183.352.118a.269.269 0 0 0 .116-.357.256.256 0 0 0-.353-.12zM7.728 9.807a.84.84 0 0 0-.234-1.144.8.8 0 0 0-1.12.238.836.836 0 0 0 .234 1.145.79.79 0 0 0 .442.134.792.792 0 0 0 .678-.373zM6.112 11.073a.4.4 0 0 0-.56.118.42.42 0 0 0 .115.572.4.4 0 0 0 .56-.118.415.415 0 0 0-.115-.572zM7.997 12.653a.34.34 0 0 0-.039.68c.183.01.34-.131.352-.317a.343.343 0 0 0-.313-.363zM8 10.517a.475.475 0 0 0-.5.458.478.478 0 0 0 .449.51.477.477 0 0 0 .499-.458.48.48 0 0 0-.448-.51zM9.942 11.04a.418.418 0 0 0-.176.556.4.4 0 0 0 .544.18.417.417 0 0 0 .18-.553.404.404 0 0 0-.548-.183z" fill="#0033AD"/></g></g></g><defs><clipPath id="a"><rect width="16" height="16" rx="8" fill="#fff"/></clipPath><clipPath id="b"><path fill="#fff" d="M0 0h16v16H0z"/></clipPath><clipPath id="c"><path fill="#fff" d="M0 0h16v16H0z"/></clipPath></defs></svg>