<svg width="16" height="16" fill="none" xmlns="http://www.w3.org/2000/svg"><g clip-path="url(#a)"><g clip-path="url(#b)"><g clip-path="url(#c)"><path d="M0 0h16v16H0V0z" fill="#43A047"/><path fill-rule="evenodd" clip-rule="evenodd" d="m5.717 3.652 1.838.493.412-1.532.919.249L8.49 4.33l.75.202.394-1.484.936.25-.403 1.492s1.527.338 1.887 1.58c.36 1.242-.79 1.896-1.142 1.92 0 0 1.34.734.88 2.178-.46 1.443-1.872 1.702-3.355 1.37l-.404 1.549-.935-.25.411-1.527-.742-.199-.413 1.534-.928-.25.411-1.527-1.887-.509.476-1.056s.532.146.734.194c.202.047.33-.162.387-.371.057-.21.911-3.681.992-3.967.08-.286.048-.509-.29-.597-.34-.088-.8-.226-.8-.226l.268-.984zM7.57 8.25l-.509 2.024s2.524.91 2.847-.371C10.23 8.62 7.57 8.25 7.57 8.25zm.234-.96.5-1.855s2.161.387 1.895 1.419-1.542.636-2.395.436z" fill="#fff"/></g></g></g><defs><clipPath id="a"><rect width="16" height="16" rx="8" fill="#fff"/></clipPath><clipPath id="b"><path fill="#fff" d="M0 0h16v16H0z"/></clipPath><clipPath id="c"><path fill="#fff" d="M0 0h16v16H0z"/></clipPath></defs></svg>