<svg width="16" height="16" fill="none" xmlns="http://www.w3.org/2000/svg"><g clip-path="url(#a)"><g clip-path="url(#b)"><g clip-path="url(#c)"><path d="M0 0h16v16H0V0z" fill="#F3BA2F"/><path d="M6.058 7.202 8 5.26l1.943 1.943 1.13-1.13L8 3 4.928 6.072l1.13 1.13zM3 8l1.13-1.13L5.26 8 4.13 9.13 3 8zm3.058.798L8 10.74l1.943-1.943 1.13 1.13L8 13 4.926 9.927l1.132-1.129zM10.74 8l1.13-1.13L13 8l-1.13 1.13L10.74 8zm-1.594-.001h.001V8L8 9.147 6.853 8l.002-.002.2-.2L8 6.853 9.146 8v-.001z" fill="#fff"/></g></g></g><defs><clipPath id="a"><rect width="16" height="16" rx="8" fill="#fff"/></clipPath><clipPath id="b"><path fill="#fff" d="M0 0h16v16H0z"/></clipPath><clipPath id="c"><path fill="#fff" d="M0 0h16v16H0z"/></clipPath></defs></svg>