<svg width="18" height="20" fill="none" xmlns="http://www.w3.org/2000/svg"><path fill-rule="evenodd" clip-rule="evenodd" d="M5.667.833c.46 0 .833.373.833.834V2.5h5v-.833a.833.833 0 1 1 1.667 0V2.5h1.666a2.5 2.5 0 0 1 2.5 2.5v11.667a2.5 2.5 0 0 1-2.5 2.5H3.167a2.5 2.5 0 0 1-2.5-2.5V5a2.5 2.5 0 0 1 2.5-2.5h1.666v-.833c0-.46.373-.834.834-.834zm-.834 3.334H3.167A.833.833 0 0 0 2.333 5v2.5h13.334V5a.833.833 0 0 0-.834-.833h-1.666V5A.833.833 0 1 1 11.5 5v-.833h-5V5a.833.833 0 0 1-1.667 0v-.833zm10.834 5H2.333v7.5c0 .46.373.833.834.833h11.666c.46 0 .834-.373.834-.833v-7.5z" fill="#9E9E9E"/></svg>