<svg width="16" height="16" viewBox="0 0 16 16" fill="none" xmlns="http://www.w3.org/2000/svg">
<g clip-path="url(#clip0_2068_797)">
<path fill-rule="evenodd" clip-rule="evenodd" d="M3.52861 3.52876C3.78896 3.26841 4.21107 3.26841 4.47141 3.52876L8.00001 7.05735L11.5286 3.52876C11.789 3.26841 12.2111 3.26841 12.4714 3.52876C12.7318 3.78911 12.7318 4.21122 12.4714 4.47157L8.94282 8.00016L12.4714 11.5288C12.7318 11.7891 12.7318 12.2112 12.4714 12.4716C12.2111 12.7319 11.789 12.7319 11.5286 12.4716L8.00001 8.94297L4.47141 12.4716C4.21107 12.7319 3.78896 12.7319 3.52861 12.4716C3.26826 12.2112 3.26826 11.7891 3.52861 11.5288L7.0572 8.00016L3.52861 4.47157C3.26826 4.21122 3.26826 3.78911 3.52861 3.52876Z" fill="#181025"/>
</g>
<defs>
<clipPath id="clip0_2068_797">
<rect width="16" height="16" fill="white"/>
</clipPath>
</defs>
</svg>
