<svg width="15" height="16" fill="none" xmlns="http://www.w3.org/2000/svg"><path fill-rule="evenodd" clip-rule="evenodd" d="M10.717 5.509c.271.248.29.67.04.942l-3.666 4a.667.667 0 0 1-.983 0L4.442 8.632a.667.667 0 0 1 .983-.9L6.6 9.012 9.775 5.55a.667.667 0 0 1 .942-.041z" fill="#004272"/><path fill-rule="evenodd" clip-rule="evenodd" d="M7.408.695a.667.667 0 0 1 .383 0l6.667 2a.667.667 0 0 1 .475.638V8c0 1.562-.779 3.055-2.028 4.305-1.253 1.252-3.015 2.301-5.094 2.994a.667.667 0 0 1-.422 0c-2.08-.693-3.841-1.742-5.094-2.994C1.045 11.055.266 9.562.266 8V3.333c0-.294.194-.554.476-.638l6.666-2zM1.6 3.829V8c0 1.105.554 2.278 1.638 3.362 1.04 1.04 2.537 1.962 4.362 2.6 1.825-.638 3.32-1.56 4.362-2.6C13.046 10.278 13.6 9.105 13.6 8V3.83l-6-1.8-6 1.8z" fill="#004272"/></svg>