<svg width="16" height="16" fill="none" xmlns="http://www.w3.org/2000/svg"><g clip-path="url(#a)"><g clip-path="url(#b)"><g clip-path="url(#c)"><path d="M0 0h16v16H0V0z" fill="#627EEA"/><path d="M8.25 2v4.435l3.748 1.675L8.25 2z" fill="#fff" fill-opacity=".602"/><path d="M8.249 2 4.5 8.11l3.749-1.675V2z" fill="#fff"/><path d="M8.25 10.985V14l3.751-5.19-3.751 2.176z" fill="#fff" fill-opacity=".602"/><path d="M8.249 13.999v-3.014L4.5 8.809 8.249 14z" fill="#fff"/><path d="m8.25 10.288 3.748-2.177L8.25 6.438v3.851z" fill="#fff" fill-opacity=".2"/><path d="m4.5 8.111 3.749 2.177v-3.85L4.5 8.11z" fill="#fff" fill-opacity=".602"/></g></g></g><defs><clipPath id="a"><rect width="16" height="16" rx="8" fill="#fff"/></clipPath><clipPath id="b"><path fill="#fff" d="M0 0h16v16H0z"/></clipPath><clipPath id="c"><path fill="#fff" d="M0 0h16v16H0z"/></clipPath></defs></svg>