<svg width="16" height="16" fill="none" xmlns="http://www.w3.org/2000/svg"><g clip-path="url(#a)"><g clip-path="url(#b)"><g clip-path="url(#c)"><path d="M0 0h16v16H0V0z" fill="#0F8FF8"/><path fill-rule="evenodd" clip-rule="evenodd" d="M4 9.502 4.405 8.5h.428a8.14 8.14 0 0 1-.017-.515c0-.224.01-.432.029-.625H4l.405-1.002h.637C5.635 4.454 6.972 3.5 9.052 3.5c.683 0 1.332.088 1.948.266v1.262a4.46 4.46 0 0 0-1.841-.388c-1.247 0-2.049.573-2.406 1.719h3.712l-.405 1.002H6.511a3.47 3.47 0 0 0-.027.497c0 .24.007.454.022.643h3.091l-.4 1.001H6.72c.267.694.591 1.178.974 1.45s.93.408 1.639.408c.507 0 1.063-.123 1.667-.37v1.186c-.575.216-1.258.324-2.05.324-2.083 0-3.401-1-3.953-2.998H4z" fill="#F2D45A"/></g></g></g><defs><clipPath id="a"><rect width="16" height="16" rx="8" fill="#fff"/></clipPath><clipPath id="b"><path fill="#fff" d="M0 0h16v16H0z"/></clipPath><clipPath id="c"><path fill="#fff" d="M0 0h16v16H0z"/></clipPath></defs></svg>