<svg width="21" height="20" fill="none" xmlns="http://www.w3.org/2000/svg"><g clip-path="url(#a)"><path fill-rule="evenodd" clip-rule="evenodd" d="M6.379 2.64a.833.833 0 0 1 .231 1.156l-1.667 2.5a.833.833 0 0 1-1.155.23l-1.25-.833a.833.833 0 1 1 .924-1.386l.557.37 1.204-1.806A.833.833 0 0 1 6.38 2.64zM8.833 5c0-.46.373-.833.834-.833H18a.833.833 0 1 1 0 1.666H9.667A.833.833 0 0 1 8.833 5zM6.38 7.64a.833.833 0 0 1 .231 1.156l-1.667 2.5a.833.833 0 0 1-1.155.23l-1.25-.833a.833.833 0 1 1 .924-1.386l.557.37 1.204-1.806A.833.833 0 0 1 6.38 7.64zM8.833 10c0-.46.373-.833.834-.833H18a.833.833 0 1 1 0 1.666H9.667A.833.833 0 0 1 8.833 10zM6.38 12.64a.833.833 0 0 1 .231 1.156l-1.667 2.5a.833.833 0 0 1-1.155.23l-1.25-.833a.833.833 0 1 1 .924-1.386l.557.37 1.204-1.806a.833.833 0 0 1 1.156-.231zM8.833 15c0-.46.373-.833.834-.833H18a.833.833 0 1 1 0 1.666H9.667A.833.833 0 0 1 8.833 15z" fill="#fff" fill-opacity=".5"/></g><defs><clipPath id="a"><path fill="#fff" transform="translate(.5)" d="M0 0h20v20H0z"/></clipPath></defs></svg>