<svg width="21" height="20" fill="none" xmlns="http://www.w3.org/2000/svg"><g clip-path="url(#a)"><g clip-path="url(#b)"><path fill-rule="evenodd" clip-rule="evenodd" d="M7.583 3.333a2.5 2.5 0 1 0 0 5 2.5 2.5 0 0 0 0-5zm-4.166 2.5a4.167 4.167 0 1 1 8.333 0 4.167 4.167 0 0 1-8.333 0zm13.75 0c.46 0 .833.373.833.834v1.666h1.667a.833.833 0 0 1 0 1.667H18v1.667a.833.833 0 0 1-1.667 0V10h-1.666a.833.833 0 1 1 0-1.667h1.666V6.667c0-.46.373-.834.834-.834zM1.72 12.887a4.167 4.167 0 0 1 2.947-1.22H10.5a4.167 4.167 0 0 1 4.167 4.166V17.5a.833.833 0 1 1-1.667 0v-1.667a2.5 2.5 0 0 0-2.5-2.5H4.667a2.5 2.5 0 0 0-2.5 2.5V17.5a.833.833 0 1 1-1.667 0v-1.667c0-1.105.439-2.165 1.22-2.946z" fill="#fff" fill-opacity=".5"/></g></g><defs><clipPath id="a"><path fill="#fff" transform="translate(.5)" d="M0 0h20v20H0z"/></clipPath><clipPath id="b"><path fill="#fff" transform="translate(.5)" d="M0 0h20v20H0z"/></clipPath></defs></svg>