<svg width="21" height="20" fill="none" xmlns="http://www.w3.org/2000/svg"><g clip-path="url(#a)"><path fill-rule="evenodd" clip-rule="evenodd" d="M9.91 1.91a.833.833 0 0 1 1.18 0l4.166 4.167a.833.833 0 0 1-1.179 1.179l-2.744-2.744V12.5a.833.833 0 1 1-1.666 0V4.512L6.923 7.256a.833.833 0 1 1-1.179-1.179l4.167-4.166zM3 11.668c.46 0 .833.373.833.833v3.333a.833.833 0 0 0 .834.834h11.666a.833.833 0 0 0 .834-.834V12.5a.833.833 0 0 1 1.666 0v3.333a2.5 2.5 0 0 1-2.5 2.5H4.667a2.5 2.5 0 0 1-2.5-2.5V12.5c0-.46.373-.833.833-.833z" fill="#fff" fill-opacity=".5"/></g><defs><clipPath id="a"><path fill="#fff" transform="translate(.5)" d="M0 0h20v20H0z"/></clipPath></defs></svg>