<svg width="16" height="16" viewBox="0 0 16 16" fill="none" xmlns="http://www.w3.org/2000/svg">
<g clip-path="url(#clip0_2068_3675)">
<g clip-path="url(#clip1_2068_3675)">
<path fill-rule="evenodd" clip-rule="evenodd" d="M8.00002 1.99984C4.68631 1.99984 2.00002 4.68613 2.00002 7.99984C2.00002 11.3135 4.68631 13.9998 8.00002 13.9998C11.3137 13.9998 14 11.3135 14 7.99984C14 4.68613 11.3137 1.99984 8.00002 1.99984ZM0.666687 7.99984C0.666687 3.94975 3.94993 0.666504 8.00002 0.666504C12.0501 0.666504 15.3334 3.94975 15.3334 7.99984C15.3334 12.0499 12.0501 15.3332 8.00002 15.3332C3.94993 15.3332 0.666687 12.0499 0.666687 7.99984ZM7.33335 5.33317C7.33335 4.96498 7.63183 4.6665 8.00002 4.6665H8.00669C8.37488 4.6665 8.67335 4.96498 8.67335 5.33317C8.67335 5.70136 8.37488 5.99984 8.00669 5.99984H8.00002C7.63183 5.99984 7.33335 5.70136 7.33335 5.33317ZM8.00002 7.33317C8.36821 7.33317 8.66669 7.63165 8.66669 7.99984V10.6665C8.66669 11.0347 8.36821 11.3332 8.00002 11.3332C7.63183 11.3332 7.33335 11.0347 7.33335 10.6665V7.99984C7.33335 7.63165 7.63183 7.33317 8.00002 7.33317Z" fill="#BDBDBD"/>
</g>
</g>
<defs>
<clipPath id="clip0_2068_3675">
<rect width="16" height="16" fill="white"/>
</clipPath>
<clipPath id="clip1_2068_3675">
<rect width="16" height="16" fill="white"/>
</clipPath>
</defs>
</svg>
