<svg width="16" height="16" fill="none" xmlns="http://www.w3.org/2000/svg"><g clip-path="url(#a)"><g clip-path="url(#b)"><g clip-path="url(#c)"><path d="M0 0h16v16H0V0z" fill="#19AB16"/><path fill-rule="evenodd" clip-rule="evenodd" d="M11.25 9.577c0 1.285-1.043 2.138-2.583 2.267V13H7.612v-1.168a5.748 5.748 0 0 1-2.862-1.157l.776-1.063c.692.537 1.346.888 2.135 1.005v-2.29C5.89 7.883 5.066 7.24 5.066 5.92c0-1.261 1.03-2.125 2.546-2.242V3h1.055v.701c.825.092 1.61.398 2.28.888l-.68 1.098a4.246 4.246 0 0 0-1.649-.748v2.22c1.844.444 2.632 1.157 2.632 2.418zM7.66 6.914V4.857c-.764.058-1.163.467-1.163.981 0 .49.23.806 1.163 1.075zm2.159 2.745c0-.526-.255-.841-1.2-1.11v2.115c.764-.059 1.2-.445 1.2-1.005z" fill="#fff"/></g></g></g><defs><clipPath id="a"><rect width="16" height="16" rx="8" fill="#fff"/></clipPath><clipPath id="b"><path fill="#fff" d="M0 0h16v16H0z"/></clipPath><clipPath id="c"><path fill="#fff" d="M0 0h16v16H0z"/></clipPath></defs></svg>