<svg width="16" height="16" fill="none" xmlns="http://www.w3.org/2000/svg"><g clip-path="url(#a)"><g clip-path="url(#b)"><g clip-path="url(#c)"><path fill="#F93939" d="M0 0h16v16H0z"/><path fill-rule="evenodd" clip-rule="evenodd" d="m5.865 7.712-1.568.825.298-1.747-1.267-1.237L5.081 5.3l.784-1.59.783 1.59 1.752.253L7.13 6.79l.302 1.745-1.567-.823zM9.6 3.2h1.067v1.067H9.6V3.2zm1.067 2.133h1.066V6.4h-1.066V5.333zm0 2.134h1.066v1.066h-1.066V7.467zM9.6 9.6h1.067v1.067H9.6V9.6z" fill="#FFDA2C"/></g></g></g><defs><clipPath id="a"><rect width="16" height="16" rx="8" fill="#fff"/></clipPath><clipPath id="b"><path fill="#fff" d="M0 0h16v16H0z"/></clipPath><clipPath id="c"><path fill="#fff" d="M0 0h16v16H0z"/></clipPath></defs></svg>