<svg width="0" height="0" class="hidden">
	<symbol fill="none" xmlns="http://www.w3.org/2000/svg" viewBox="0 0 16 16" id="ada">
		<g clip-path="url(#a)">
			<g clip-path="url(#b)">
				<g clip-path="url(#c)">
					<path d="M0 0h16v16H0V0z" fill="#fff">
					</path>
					<path d="M5.29 7.626a.82.82 0 0 0 .761.87H6.1c.448 0 .81-.37.807-.828a.813.813 0 0 0-.81-.824.816.816 0 0 0-.806.782zM2.275 7.413A.261.261 0 0 0 2 7.665a.265.265 0 0 0 .247.281.263.263 0 0 0 .275-.252.265.265 0 0 0-.247-.28zM5.239 2.831a.273.273 0 0 0 .115-.36.261.261 0 0 0-.352-.117.269.269 0 0 0-.115.356c.064.134.22.19.352.121zM6.058 4.293a.417.417 0 0 0 .179-.553.4.4 0 0 0-.54-.183.417.417 0 0 0-.18.553.4.4 0 0 0 .54.183zM3.3 5.297a.33.33 0 0 0 .46-.098.347.347 0 0 0-.096-.47.33.33 0 0 0-.46.097.343.343 0 0 0 .095.471zM3.789 7.266a.405.405 0 0 0-.426.39.408.408 0 0 0 .381.434.405.405 0 0 0 .426-.389.41.41 0 0 0-.381-.435zM3.344 10.036a.345.345 0 0 0-.147.458.33.33 0 0 0 .448.15.345.345 0 0 0 .147-.457.331.331 0 0 0-.448-.15zM4.912 6.412c.22.148.515.085.656-.14a.488.488 0 0 0-.137-.67.465.465 0 0 0-.656.14.49.49 0 0 0 .137.67zM9.888 4.26a.4.4 0 0 0 .56-.117.42.42 0 0 0-.115-.573.4.4 0 0 0-.56.118.414.414 0 0 0 .115.572zM10.713 2.805a.257.257 0 0 0 .362-.078.27.27 0 0 0-.077-.37.258.258 0 0 0-.361.075.28.28 0 0 0 .076.373zM9.949 6.838a.813.813 0 0 0-.851.778.818.818 0 0 0 .761.87h.045c.445 0 .806-.37.806-.828a.812.812 0 0 0-.761-.82zM6.323 6.354a.808.808 0 0 0 .723.454c.445 0 .807-.37.807-.827a.848.848 0 0 0-.087-.373.798.798 0 0 0-1.084-.366c-.4.209-.56.706-.359 1.112zM12.656 5.297a.345.345 0 0 0 .144-.458.33.33 0 0 0-.448-.147.345.345 0 0 0-.147.455.335.335 0 0 0 .45.15zM10.608 5.559a.49.49 0 0 0-.211.65.47.47 0 0 0 .636.217.49.49 0 0 0 .212-.651.473.473 0 0 0-.637-.216zM7.968 2.68A.34.34 0 0 0 8.006 2a.337.337 0 0 0-.352.318c-.01.19.132.35.314.363zM7.965 4.816a.475.475 0 0 0 .499-.457.478.478 0 0 0-.448-.51.475.475 0 0 0-.5.457.48.48 0 0 0 .449.51zM5.392 9.775a.49.49 0 0 0 .211-.651.47.47 0 0 0-.636-.216.49.49 0 0 0-.212.65.47.47 0 0 0 .637.217zM8.272 5.526a.834.834 0 0 0 .234 1.142.795.795 0 0 0 1.116-.24.834.834 0 0 0-.233-1.14.79.79 0 0 0-.442-.135.806.806 0 0 0-.675.373zM9.677 8.98a.798.798 0 0 0-1.085-.367.833.833 0 0 0-.358 1.11.798.798 0 0 0 1.084.365.83.83 0 0 0 .359-1.108zM11.088 8.92a.465.465 0 0 0-.656.142.488.488 0 0 0 .137.67c.221.147.516.085.656-.14a.49.49 0 0 0-.137-.671zM12.637 7.681a.408.408 0 0 0-.381-.435.405.405 0 0 0-.426.39.408.408 0 0 0 .381.435.41.41 0 0 0 .426-.39zM13.753 7.387a.261.261 0 0 0-.275.252.265.265 0 0 0 .247.281.263.263 0 0 0 .275-.252.267.267 0 0 0-.247-.281zM12.7 10.036a.33.33 0 0 0-.46.098.347.347 0 0 0 .096.471.33.33 0 0 0 .46-.098.343.343 0 0 0-.095-.47zM5.283 12.528a.258.258 0 0 0-.361.075.271.271 0 0 0 .073.37.258.258 0 0 0 .362-.075.266.266 0 0 0-.074-.37zM10.761 12.502a.273.273 0 0 0-.115.36c.064.13.224.183.352.118a.269.269 0 0 0 .116-.357.256.256 0 0 0-.353-.12zM7.728 9.807a.84.84 0 0 0-.234-1.144.8.8 0 0 0-1.12.238.836.836 0 0 0 .234 1.145.79.79 0 0 0 .442.134.792.792 0 0 0 .678-.373zM6.112 11.073a.4.4 0 0 0-.56.118.42.42 0 0 0 .115.572.4.4 0 0 0 .56-.118.415.415 0 0 0-.115-.572zM7.997 12.653a.34.34 0 0 0-.039.68c.183.01.34-.131.352-.317a.343.343 0 0 0-.313-.363zM8 10.517a.475.475 0 0 0-.5.458.478.478 0 0 0 .449.51.477.477 0 0 0 .499-.458.48.48 0 0 0-.448-.51zM9.942 11.04a.418.418 0 0 0-.176.556.4.4 0 0 0 .544.18.417.417 0 0 0 .18-.553.404.404 0 0 0-.548-.183z" fill="#0033AD">
					</path>
				</g>
			</g>
		</g>
		<defs>
			<clipPath id="a">
				<rect width="16" height="16" rx="8" fill="#fff">
				</rect>
			</clipPath>
			<clipPath id="b">
				<path fill="#fff" d="M0 0h16v16H0z">
				</path>
			</clipPath>
			<clipPath id="c">
				<path fill="#fff" d="M0 0h16v16H0z">
				</path>
			</clipPath>
		</defs>
	</symbol>
	<symbol fill="none" xmlns="http://www.w3.org/2000/svg" viewBox="0 0 16 16" id="bch">
		<g clip-path="url(#a)">
			<g clip-path="url(#b)">
				<g clip-path="url(#c)">
					<path d="M0 0h16v16H0V0z" fill="#43A047">
					</path>
					<path fill-rule="evenodd" clip-rule="evenodd" d="m5.717 3.652 1.838.493.412-1.532.919.249L8.49 4.33l.75.202.394-1.484.936.25-.403 1.492s1.527.338 1.887 1.58c.36 1.242-.79 1.896-1.142 1.92 0 0 1.34.734.88 2.178-.46 1.443-1.872 1.702-3.355 1.37l-.404 1.549-.935-.25.411-1.527-.742-.199-.413 1.534-.928-.25.411-1.527-1.887-.509.476-1.056s.532.146.734.194c.202.047.33-.162.387-.371.057-.21.911-3.681.992-3.967.08-.286.048-.509-.29-.597-.34-.088-.8-.226-.8-.226l.268-.984zM7.57 8.25l-.509 2.024s2.524.91 2.847-.371C10.23 8.62 7.57 8.25 7.57 8.25zm.234-.96.5-1.855s2.161.387 1.895 1.419-1.542.636-2.395.436z" fill="#fff">
					</path>
				</g>
			</g>
		</g>
		<defs>
			<clipPath id="a">
				<rect width="16" height="16" rx="8" fill="#fff">
				</rect>
			</clipPath>
			<clipPath id="b">
				<path fill="#fff" d="M0 0h16v16H0z">
				</path>
			</clipPath>
			<clipPath id="c">
				<path fill="#fff" d="M0 0h16v16H0z">
				</path>
			</clipPath>
		</defs>
	</symbol>
	<symbol fill="none" xmlns="http://www.w3.org/2000/svg" viewBox="0 0 16 16" id="bnb">
		<g clip-path="url(#a)">
			<g clip-path="url(#b)">
				<g clip-path="url(#c)">
					<path d="M0 0h16v16H0V0z" fill="#F3BA2F">
					</path>
					<path d="M6.058 7.202 8 5.26l1.943 1.943 1.13-1.13L8 3 4.928 6.072l1.13 1.13zM3 8l1.13-1.13L5.26 8 4.13 9.13 3 8zm3.058.798L8 10.74l1.943-1.943 1.13 1.13L8 13 4.926 9.927l1.132-1.129zM10.74 8l1.13-1.13L13 8l-1.13 1.13L10.74 8zm-1.594-.001h.001V8L8 9.147 6.853 8l.002-.002.2-.2L8 6.853 9.146 8v-.001z" fill="#fff">
					</path>
				</g>
			</g>
		</g>
		<defs>
			<clipPath id="a">
				<rect width="16" height="16" rx="8" fill="#fff">
				</rect>
			</clipPath>
			<clipPath id="b">
				<path fill="#fff" d="M0 0h16v16H0z">
				</path>
			</clipPath>
			<clipPath id="c">
				<path fill="#fff" d="M0 0h16v16H0z">
				</path>
			</clipPath>
		</defs>
	</symbol>
	<symbol fill="none" xmlns="http://www.w3.org/2000/svg" viewBox="0 0 16 16" id="cad">
		<g clip-path="url(#a)">
			<g clip-path="url(#b)">
				<g clip-path="url(#c)">
					<path d="M0 0h16v16H0V0z" fill="#fff">
					</path>
					<path fill-rule="evenodd" clip-rule="evenodd" d="M11.25 9.577c0 1.285-1.043 2.138-2.583 2.267V13H7.612v-1.168a5.748 5.748 0 0 1-2.862-1.157l.776-1.063c.692.537 1.346.888 2.135 1.005v-2.29C5.89 7.883 5.066 7.24 5.066 5.92c0-1.261 1.03-2.125 2.546-2.242V3h1.055v.701c.825.092 1.61.398 2.28.888l-.68 1.098a4.246 4.246 0 0 0-1.649-.748v2.22c1.844.444 2.632 1.157 2.632 2.418zM7.66 6.914V4.857c-.764.058-1.163.467-1.163.981 0 .49.23.806 1.163 1.075zm2.159 2.745c0-.526-.255-.841-1.2-1.11v2.115c.764-.059 1.2-.445 1.2-1.005z" fill="red">
					</path>
				</g>
			</g>
		</g>
		<defs>
			<clipPath id="a">
				<rect width="16" height="16" rx="8" fill="#fff">
				</rect>
			</clipPath>
			<clipPath id="b">
				<path fill="#fff" d="M0 0h16v16H0z">
				</path>
			</clipPath>
			<clipPath id="c">
				<path fill="#fff" d="M0 0h16v16H0z">
				</path>
			</clipPath>
		</defs>
	</symbol>
	<symbol fill="none" xmlns="http://www.w3.org/2000/svg" viewBox="0 0 18 20" id="calendar">
		<path fill-rule="evenodd" clip-rule="evenodd" d="M5.667.833c.46 0 .833.373.833.834V2.5h5v-.833a.833.833 0 1 1 1.667 0V2.5h1.666a2.5 2.5 0 0 1 2.5 2.5v11.667a2.5 2.5 0 0 1-2.5 2.5H3.167a2.5 2.5 0 0 1-2.5-2.5V5a2.5 2.5 0 0 1 2.5-2.5h1.666v-.833c0-.46.373-.834.834-.834zm-.834 3.334H3.167A.833.833 0 0 0 2.333 5v2.5h13.334V5a.833.833 0 0 0-.834-.833h-1.666V5A.833.833 0 1 1 11.5 5v-.833h-5V5a.833.833 0 0 1-1.667 0v-.833zm10.834 5H2.333v7.5c0 .46.373.833.834.833h11.666c.46 0 .834-.373.834-.833v-7.5z" fill="#9E9E9E">
		</path>
	</symbol>
	<symbol fill="none" xmlns="http://www.w3.org/2000/svg" viewBox="0 0 16 16" id="close">
		<g clip-path="url(#clip0_2068_797)">
			<path fill-rule="evenodd" clip-rule="evenodd" d="M3.52861 3.52876C3.78896 3.26841 4.21107 3.26841 4.47141 3.52876L8.00001 7.05735L11.5286 3.52876C11.789 3.26841 12.2111 3.26841 12.4714 3.52876C12.7318 3.78911 12.7318 4.21122 12.4714 4.47157L8.94282 8.00016L12.4714 11.5288C12.7318 11.7891 12.7318 12.2112 12.4714 12.4716C12.2111 12.7319 11.789 12.7319 11.5286 12.4716L8.00001 8.94297L4.47141 12.4716C4.21107 12.7319 3.78896 12.7319 3.52861 12.4716C3.26826 12.2112 3.26826 11.7891 3.52861 11.5288L7.0572 8.00016L3.52861 4.47157C3.26826 4.21122 3.26826 3.78911 3.52861 3.52876Z" fill="#181025">
			</path>
		</g>
		<defs>
			<clipPath id="clip0_2068_797">
				<rect width="16" height="16" fill="white">
				</rect>
			</clipPath>
		</defs>
	</symbol>
	<symbol fill="none" xmlns="http://www.w3.org/2000/svg" viewBox="0 0 16 16" id="cny">
		<g clip-path="url(#a)">
			<g clip-path="url(#b)">
				<g clip-path="url(#c)">
					<path d="M0 0h16v16H0V0z" fill="red">
					</path>
					<path d="M8.678 8h2.518v1.067H8.529V12.8H7.463V9.067H4.796V8h2.517l-3.05-4.8h1.264l2.469 3.888 2.47-3.888h1.263L8.68 8z" fill="#fff">
					</path>
				</g>
			</g>
		</g>
		<defs>
			<clipPath id="a">
				<rect width="16" height="16" rx="8" fill="#fff">
				</rect>
			</clipPath>
			<clipPath id="b">
				<path fill="#fff" d="M0 0h16v16H0z">
				</path>
			</clipPath>
			<clipPath id="c">
				<path fill="#fff" d="M0 0h16v16H0z">
				</path>
			</clipPath>
		</defs>
	</symbol>
	<symbol fill="none" xmlns="http://www.w3.org/2000/svg" viewBox="0 0 15 16" id="connected">
		<path fill-rule="evenodd" clip-rule="evenodd" d="M10.717 5.509c.271.248.29.67.04.942l-3.666 4a.667.667 0 0 1-.983 0L4.442 8.632a.667.667 0 0 1 .983-.9L6.6 9.012 9.775 5.55a.667.667 0 0 1 .942-.041z" fill="#004272">
		</path>
		<path fill-rule="evenodd" clip-rule="evenodd" d="M7.408.695a.667.667 0 0 1 .383 0l6.667 2a.667.667 0 0 1 .475.638V8c0 1.562-.779 3.055-2.028 4.305-1.253 1.252-3.015 2.301-5.094 2.994a.667.667 0 0 1-.422 0c-2.08-.693-3.841-1.742-5.094-2.994C1.045 11.055.266 9.562.266 8V3.333c0-.294.194-.554.476-.638l6.666-2zM1.6 3.829V8c0 1.105.554 2.278 1.638 3.362 1.04 1.04 2.537 1.962 4.362 2.6 1.825-.638 3.32-1.56 4.362-2.6C13.046 10.278 13.6 9.105 13.6 8V3.83l-6-1.8-6 1.8z" fill="#004272">
		</path>
	</symbol>
	<symbol fill="none" xmlns="http://www.w3.org/2000/svg" viewBox="0 0 64 64" id="deu">
		<path d="M31.9 2C18.8 2 7.7 10.4 3.6 22h56.6C56.1 10.4 45 2 31.9 2z" fill="#3e4347" />
		<path d="M31.9 62c13.1 0 24.2-8.3 28.3-20H3.6c4.1 11.7 15.2 20 28.3 20z" fill="#ffe62e" />
		<path d="M3.6 22c-1.1 3.1-1.7 6.5-1.7 10s.6 6.9 1.7 10h56.6c1.1-3.1 1.7-6.5 1.7-10s-.6-6.9-1.7-10H3.6" fill="#ed4c5c" />
	</symbol>
	<symbol fill="none" xmlns="http://www.w3.org/2000/svg" viewBox="0 0 16 16" id="eth">
		<g clip-path="url(#a)">
			<g clip-path="url(#b)">
				<g clip-path="url(#c)">
					<path d="M0 0h16v16H0V0z" fill="#627EEA">
					</path>
					<path d="M8.25 2v4.435l3.748 1.675L8.25 2z" fill="#fff" fill-opacity=".602">
					</path>
					<path d="M8.249 2 4.5 8.11l3.749-1.675V2z" fill="#fff">
					</path>
					<path d="M8.25 10.985V14l3.751-5.19-3.751 2.176z" fill="#fff" fill-opacity=".602">
					</path>
					<path d="M8.249 13.999v-3.014L4.5 8.809 8.249 14z" fill="#fff">
					</path>
					<path d="m8.25 10.288 3.748-2.177L8.25 6.438v3.851z" fill="#fff" fill-opacity=".2">
					</path>
					<path d="m4.5 8.111 3.749 2.177v-3.85L4.5 8.11z" fill="#fff" fill-opacity=".602">
					</path>
				</g>
			</g>
		</g>
		<defs>
			<clipPath id="a">
				<rect width="16" height="16" rx="8" fill="#fff">
				</rect>
			</clipPath>
			<clipPath id="b">
				<path fill="#fff" d="M0 0h16v16H0z">
				</path>
			</clipPath>
			<clipPath id="c">
				<path fill="#fff" d="M0 0h16v16H0z">
				</path>
			</clipPath>
		</defs>
	</symbol>
	<symbol fill="none" xmlns="http://www.w3.org/2000/svg" viewBox="0 0 16 16" id="eur">
		<g clip-path="url(#a)">
			<g clip-path="url(#b)">
				<g clip-path="url(#c)">
					<path d="M0 0h16v16H0V0z" fill="#0F8FF8">
					</path>
					<path fill-rule="evenodd" clip-rule="evenodd" d="M4 9.502 4.405 8.5h.428a8.14 8.14 0 0 1-.017-.515c0-.224.01-.432.029-.625H4l.405-1.002h.637C5.635 4.454 6.972 3.5 9.052 3.5c.683 0 1.332.088 1.948.266v1.262a4.46 4.46 0 0 0-1.841-.388c-1.247 0-2.049.573-2.406 1.719h3.712l-.405 1.002H6.511a3.47 3.47 0 0 0-.027.497c0 .24.007.454.022.643h3.091l-.4 1.001H6.72c.267.694.591 1.178.974 1.45s.93.408 1.639.408c.507 0 1.063-.123 1.667-.37v1.186c-.575.216-1.258.324-2.05.324-2.083 0-3.401-1-3.953-2.998H4z" fill="#F2D45A">
					</path>
				</g>
			</g>
		</g>
		<defs>
			<clipPath id="a">
				<rect width="16" height="16" rx="8" fill="#fff">
				</rect>
			</clipPath>
			<clipPath id="b">
				<path fill="#fff" d="M0 0h16v16H0z">
				</path>
			</clipPath>
			<clipPath id="c">
				<path fill="#fff" d="M0 0h16v16H0z">
				</path>
			</clipPath>
		</defs>
	</symbol>
	<symbol fill="none" xmlns="http://www.w3.org/2000/svg" viewBox="0 0 256 256" id="fra">
		<g style="stroke:none;stroke-width:0;stroke-dasharray:none;stroke-linecap:butt;stroke-linejoin:miter;stroke-miterlimit:10;fill:none;fill-rule:nonzero;opacity:1">
			<path d="M59.999 2.571V87.43c17.466-6.175 29.985-22.818 30-42.396v-.068c-.014-19.577-12.534-36.221-30-42.395z" style="stroke:none;stroke-width:1;stroke-dasharray:none;stroke-linecap:butt;stroke-linejoin:miter;stroke-miterlimit:10;fill:#f31830;fill-rule:nonzero;opacity:1" transform="matrix(2.81 0 0 2.81 1.407 1.407)" />
			<path d="M30 87.429V2.571C12.524 8.75 0 25.408 0 45s12.524 36.25 30 42.429z" style="stroke:none;stroke-width:1;stroke-dasharray:none;stroke-linecap:butt;stroke-linejoin:miter;stroke-miterlimit:10;fill:#00267f;fill-rule:nonzero;opacity:1" transform="matrix(2.81 0 0 2.81 1.407 1.407)" />
			<path d="M30 87.429A44.914 44.914 0 0 0 45 90c5.261 0 10.307-.911 15-2.571V2.57A44.913 44.913 0 0 0 45 0c-5.261 0-10.307.912-15 2.571v84.858z" style="stroke:none;stroke-width:1;stroke-dasharray:none;stroke-linecap:butt;stroke-linejoin:miter;stroke-miterlimit:10;fill:#f3f4f5;fill-rule:nonzero;opacity:1" transform="matrix(2.81 0 0 2.81 1.407 1.407)" />
		</g>
	</symbol>
	<symbol fill="none" xmlns="http://www.w3.org/2000/svg" viewBox="0 0 16 16" id="gbp">
		<g clip-path="url(#a)">
			<g clip-path="url(#b)">
				<path d="M0 0h16v16H0V0z" fill="#EB5C24">
				</path>
				<path d="M9.392 10.431H7.308v-1.39h1.389V7.654h-1.39V6.61a1.043 1.043 0 0 1 2.084 0h1.39c0-1.34-1.091-2.431-2.431-2.431a2.434 2.434 0 0 0-2.431 2.43v1.043h-.695v1.389h.695v1.39h-.695v1.388h5.557V9.737H9.39v.694z" fill="#F4F4F4">
				</path>
			</g>
		</g>
		<defs>
			<clipPath id="a">
				<rect width="16" height="16" rx="8" fill="#fff">
				</rect>
			</clipPath>
			<clipPath id="b">
				<path fill="#fff" d="M0 0h16v16H0z">
				</path>
			</clipPath>
		</defs>
	</symbol>
	<symbol fill="none" xmlns="http://www.w3.org/2000/svg" viewBox="0 0 512 512" id="gbr">
		<circle cx="256" cy="256" r="256" fill="#f0f0f0" />
		<path d="M52.92 100.142c-20.109 26.163-35.272 56.318-44.101 89.077h133.178L52.92 100.142zm450.261 89.077c-8.829-32.758-23.993-62.913-44.101-89.076l-89.075 89.076h133.176zM8.819 322.784c8.83 32.758 23.993 62.913 44.101 89.075l89.074-89.075H8.819h0zM411.858 52.921c-26.163-20.109-56.317-35.272-89.076-44.102v133.177l89.076-89.075zM100.142 459.079c26.163 20.109 56.318 35.272 89.076 44.102V370.005l-89.076 89.074zm89.075-450.26c-32.758 8.83-62.913 23.993-89.075 44.101l89.075 89.075V8.819zm133.566 494.362c32.758-8.83 62.913-23.993 89.075-44.101l-89.075-89.075v133.176zm47.222-180.397l89.075 89.076c20.108-26.162 35.272-56.318 44.101-89.076H370.005z" fill="#0052b4" />
		<path d="M509.833 222.609h-220.44-.001V2.167C278.461.744 267.317 0 256 0a258.53 258.53 0 0 0-33.391 2.167v220.44.001H2.167C.744 233.539 0 244.683 0 256a258.53 258.53 0 0 0 2.167 33.391h220.44.001v220.442C233.539 511.256 244.681 512 256 512a258.35 258.35 0 0 0 33.391-2.167v-220.44-.001h220.442C511.256 278.461 512 267.319 512 256a258.53 258.53 0 0 0-2.167-33.391zm-187.05 100.175h0L437.019 437.02c5.254-5.252 10.266-10.743 15.048-16.435l-97.802-97.802h-31.482v.001zm-133.566 0h-.002L74.98 437.019c5.252 5.254 10.743 10.266 16.435 15.048l97.802-97.804v-31.479zm0-133.565v-.002L74.981 74.98c-5.254 5.252-10.266 10.743-15.048 16.435l97.803 97.803h31.481zm133.566 0h0L437.02 74.981c-5.252-5.254-10.743-10.266-16.435-15.047l-97.802 97.803v31.482z" fill="#d80027" />
	</symbol>
	<symbol fill="none" xmlns="http://www.w3.org/2000/svg" viewBox="0 0 21 20" id="icon-add">
		<g clip-path="url(#a)">
			<g clip-path="url(#b)">
				<path fill-rule="evenodd" clip-rule="evenodd" d="M7.583 3.333a2.5 2.5 0 1 0 0 5 2.5 2.5 0 0 0 0-5zm-4.166 2.5a4.167 4.167 0 1 1 8.333 0 4.167 4.167 0 0 1-8.333 0zm13.75 0c.46 0 .833.373.833.834v1.666h1.667a.833.833 0 0 1 0 1.667H18v1.667a.833.833 0 0 1-1.667 0V10h-1.666a.833.833 0 1 1 0-1.667h1.666V6.667c0-.46.373-.834.834-.834zM1.72 12.887a4.167 4.167 0 0 1 2.947-1.22H10.5a4.167 4.167 0 0 1 4.167 4.166V17.5a.833.833 0 1 1-1.667 0v-1.667a2.5 2.5 0 0 0-2.5-2.5H4.667a2.5 2.5 0 0 0-2.5 2.5V17.5a.833.833 0 1 1-1.667 0v-1.667c0-1.105.439-2.165 1.22-2.946z" fill="currentColor">
				</path>
			</g>
		</g>
		<defs>
			<clipPath id="a">
				<path fill="#fff" transform="translate(.5)" d="M0 0h20v20H0z">
				</path>
			</clipPath>
			<clipPath id="b">
				<path fill="#fff" transform="translate(.5)" d="M0 0h20v20H0z">
				</path>
			</clipPath>
		</defs>
	</symbol>
	<symbol fill="none" xmlns="http://www.w3.org/2000/svg" viewBox="0 0 21 20" id="icon-list-checked">
		<g clip-path="url(#a)">
			<path fill-rule="evenodd" clip-rule="evenodd" d="M6.379 2.64a.833.833 0 0 1 .231 1.156l-1.667 2.5a.833.833 0 0 1-1.155.23l-1.25-.833a.833.833 0 1 1 .924-1.386l.557.37 1.204-1.806A.833.833 0 0 1 6.38 2.64zM8.833 5c0-.46.373-.833.834-.833H18a.833.833 0 1 1 0 1.666H9.667A.833.833 0 0 1 8.833 5zM6.38 7.64a.833.833 0 0 1 .231 1.156l-1.667 2.5a.833.833 0 0 1-1.155.23l-1.25-.833a.833.833 0 1 1 .924-1.386l.557.37 1.204-1.806A.833.833 0 0 1 6.38 7.64zM8.833 10c0-.46.373-.833.834-.833H18a.833.833 0 1 1 0 1.666H9.667A.833.833 0 0 1 8.833 10zM6.38 12.64a.833.833 0 0 1 .231 1.156l-1.667 2.5a.833.833 0 0 1-1.155.23l-1.25-.833a.833.833 0 1 1 .924-1.386l.557.37 1.204-1.806a.833.833 0 0 1 1.156-.231zM8.833 15c0-.46.373-.833.834-.833H18a.833.833 0 1 1 0 1.666H9.667A.833.833 0 0 1 8.833 15z" fill="currentColor">
			</path>
		</g>
		<defs>
			<clipPath id="a">
				<path fill="#fff" transform="translate(.5)" d="M0 0h20v20H0z">
				</path>
			</clipPath>
		</defs>
	</symbol>
	<symbol fill="none" xmlns="http://www.w3.org/2000/svg" viewBox="0 0 21 20" id="icon-settings">
		<g clip-path="url(#a)">
			<g clip-path="url(#b)">
				<path fill-rule="evenodd" clip-rule="evenodd" d="M10.5 1.667a.833.833 0 0 0-.833.833v.145a2.208 2.208 0 0 1-1.339 2.02.833.833 0 0 1-.22.061 2.208 2.208 0 0 1-2.274-.505l-.007-.007-.05-.05a.836.836 0 0 0-1.18 0 .833.833 0 0 0 0 1.18l.057.057a2.208 2.208 0 0 1 .452 2.411 2.208 2.208 0 0 1-2.012 1.421H3A.833.833 0 0 0 3 10.9h.145a2.208 2.208 0 0 1 2.02 1.334 2.208 2.208 0 0 1-.444 2.432l-.007.007-.05.05a.835.835 0 0 0 0 1.18.833.833 0 0 0 1.18 0l.057-.057a2.209 2.209 0 0 1 2.411-.452 2.208 2.208 0 0 1 1.421 2.011v.095a.833.833 0 0 0 1.667 0v-.145a2.208 2.208 0 0 1 1.334-2.02 2.209 2.209 0 0 1 2.432.444l.007.007.05.05a.836.836 0 0 0 .909.181.834.834 0 0 0 .27-.18v-.002a.832.832 0 0 0 0-1.179l-.056-.057a2.209 2.209 0 0 1-.444-2.431 2.209 2.209 0 0 1 2.02-1.335H18a.834.834 0 0 0 0-1.666h-.145a2.208 2.208 0 0 1-2.021-1.339.834.834 0 0 1-.06-.22 2.208 2.208 0 0 1 .505-2.274l.007-.007.05-.05a.837.837 0 0 0 .181-.909.834.834 0 0 0-.18-.27h-.002a.833.833 0 0 0-1.179 0l-.057.056a2.208 2.208 0 0 1-2.431.444 2.208 2.208 0 0 1-1.335-2.02V2.5a.834.834 0 0 0-.833-.833zM8.732.732A2.5 2.5 0 0 1 13 2.5v.073a.542.542 0 0 0 .328.494l.008.004a.542.542 0 0 0 .595-.106l.046-.046a2.5 2.5 0 1 1 3.537 3.537l-.046.046a.541.541 0 0 0-.106.595.83.83 0 0 1 .054.166.543.543 0 0 0 .444.237H18a2.5 2.5 0 0 1 0 5h-.073a.542.542 0 0 0-.494.328l-.004.008a.542.542 0 0 0 .106.595l.046.046a2.5 2.5 0 0 1 0 3.538v-.001a2.5 2.5 0 0 1-3.537 0l-.046-.046a.542.542 0 0 0-.595-.106l-.008.004a.542.542 0 0 0-.328.494v.14a2.5 2.5 0 0 1-5 0v-.063a.542.542 0 0 0-.355-.488.932.932 0 0 1-.048-.02.542.542 0 0 0-.595.106l-.046.046a2.501 2.501 0 1 1-3.537-3.537l.046-.046a.542.542 0 0 0 .106-.595l-.004-.008a.542.542 0 0 0-.494-.328H3a2.5 2.5 0 1 1 0-5h.063a.542.542 0 0 0 .488-.355.831.831 0 0 1 .02-.048.542.542 0 0 0-.106-.595l-.046-.046a2.5 2.5 0 1 1 3.537-3.537l.046.046a.542.542 0 0 0 .595.106.834.834 0 0 1 .166-.054A.542.542 0 0 0 8 2.64V2.5A2.5 2.5 0 0 1 8.732.732zM10.5 8.333a1.667 1.667 0 1 0 0 3.334 1.667 1.667 0 0 0 0-3.334zM7.167 10a3.333 3.333 0 1 1 6.666 0 3.333 3.333 0 0 1-6.666 0z" fill="currentColor">
				</path>
			</g>
		</g>
		<defs>
			<clipPath id="a">
				<path fill="#fff" transform="translate(.5)" d="M0 0h20v20H0z">
				</path>
			</clipPath>
			<clipPath id="b">
				<path fill="#fff" transform="translate(.5)" d="M0 0h20v20H0z">
				</path>
			</clipPath>
		</defs>
	</symbol>
	<symbol fill="none" xmlns="http://www.w3.org/2000/svg" viewBox="0 0 21 20" id="icon-upload">
		<g clip-path="url(#a)">
			<path fill-rule="evenodd" clip-rule="evenodd" d="M9.91 1.91a.833.833 0 0 1 1.18 0l4.166 4.167a.833.833 0 0 1-1.179 1.179l-2.744-2.744V12.5a.833.833 0 1 1-1.666 0V4.512L6.923 7.256a.833.833 0 1 1-1.179-1.179l4.167-4.166zM3 11.668c.46 0 .833.373.833.833v3.333a.833.833 0 0 0 .834.834h11.666a.833.833 0 0 0 .834-.834V12.5a.833.833 0 0 1 1.666 0v3.333a2.5 2.5 0 0 1-2.5 2.5H4.667a2.5 2.5 0 0 1-2.5-2.5V12.5c0-.46.373-.833.833-.833z" fill="currentColor">
			</path>
		</g>
		<defs>
			<clipPath id="a">
				<path fill="#fff" transform="translate(.5)" d="M0 0h20v20H0z">
				</path>
			</clipPath>
		</defs>
	</symbol>
	<symbol fill="none" xmlns="http://www.w3.org/2000/svg" viewBox="0 0 16 16" id="info">
		<g clip-path="url(#clip0_2068_3675)">
			<g clip-path="url(#clip1_2068_3675)">
				<path fill-rule="evenodd" clip-rule="evenodd" d="M8.00002 1.99984C4.68631 1.99984 2.00002 4.68613 2.00002 7.99984C2.00002 11.3135 4.68631 13.9998 8.00002 13.9998C11.3137 13.9998 14 11.3135 14 7.99984C14 4.68613 11.3137 1.99984 8.00002 1.99984ZM0.666687 7.99984C0.666687 3.94975 3.94993 0.666504 8.00002 0.666504C12.0501 0.666504 15.3334 3.94975 15.3334 7.99984C15.3334 12.0499 12.0501 15.3332 8.00002 15.3332C3.94993 15.3332 0.666687 12.0499 0.666687 7.99984ZM7.33335 5.33317C7.33335 4.96498 7.63183 4.6665 8.00002 4.6665H8.00669C8.37488 4.6665 8.67335 4.96498 8.67335 5.33317C8.67335 5.70136 8.37488 5.99984 8.00669 5.99984H8.00002C7.63183 5.99984 7.33335 5.70136 7.33335 5.33317ZM8.00002 7.33317C8.36821 7.33317 8.66669 7.63165 8.66669 7.99984V10.6665C8.66669 11.0347 8.36821 11.3332 8.00002 11.3332C7.63183 11.3332 7.33335 11.0347 7.33335 10.6665V7.99984C7.33335 7.63165 7.63183 7.33317 8.00002 7.33317Z" fill="#BDBDBD">
				</path>
			</g>
		</g>
		<defs>
			<clipPath id="clip0_2068_3675">
				<rect width="16" height="16" fill="white">
				</rect>
			</clipPath>
			<clipPath id="clip1_2068_3675">
				<rect width="16" height="16" fill="white">
				</rect>
			</clipPath>
		</defs>
	</symbol>
	<symbol fill="none" xmlns="http://www.w3.org/2000/svg" viewBox="0 0 20 20" id="select">
		<path fill-rule="evenodd" clip-rule="evenodd" d="M4.41 6.91a.833.833 0 0 1 1.18 0L10 11.322l4.41-4.41a.833.833 0 0 1 1.18 1.178l-5 5a.833.833 0 0 1-1.18 0l-5-5a.833.833 0 0 1 0-1.178z" fill="#BDBDBD">
		</path>
	</symbol>
	<symbol fill="none" xmlns="http://www.w3.org/2000/svg" viewBox="0 0 64 64" id="spa">
		<path d="M2 32c0 5.9 1.7 11.4 4.6 16h50.7c2.9-4.6 4.6-10.1 4.6-16s-1.7-11.4-4.6-16H6.6C3.7 20.6 2 26.1 2 32z" fill="#ffce31" />
		<g fill="#ed4c5c">
			<path d="M57.4 16C52.1 7.6 42.7 2 32 2S11.9 7.6 6.6 16h50.8zM6.6 48c5.3 8.4 14.7 14 25.4 14s20.1-5.6 25.4-14H6.6z" />
		</g>
		<g fill="#c8b100">
			<path d="M9.2 28.7h3.2v1.8H9.2zM9.2 41.9h3.3v1.7H9.2z" />
		</g>
		<path d="M8.9 39.1c-.3.2-.5.4-.5.5 0 .1.1.2.3.3.2.1.4.3.3.5.2-.2.3-.4.3-.6 0-.3-.2-.6-.4-.7" fill="#ed4c5c" />
		<path fill="#fff" d="M9.7 30.5H12v11.4H9.7z" />
		<g fill="#ed4c5c">
			<path d="M14.4 34.7c-.5-.2-1.4-.4-2.4-.4-.3 0-.7 0-1.1.1-1.4.2-2.5.8-2.4 1.2L8 34.5c-.1-.5 1.1-1.1 2.6-1.4.5-.1 1-.1 1.4-.1 1 0 1.9.1 2.4.3v1.4" />
			<path d="M9.7 36.2c-.6 0-1.1-.2-1.1-.5 0-.2.2-.5.6-.7h.6l-.1 1.2M12 35.3c.4.1.7.2.9.3.1.1-.3.5-.9.8v-1.1" />
			<path d="M8.2 38.4c-.1-.2.6-.6 1.5-.9.4-.1.7-.3 1.2-.5 1.2-.5 2.2-1.2 2-1.4l.2 1.2c.1.2-.7.8-1.9 1.4-.4.2-1.1.5-1.5.6-.7.2-1.3.6-1.3.7l-.2-1.1" />
		</g>
		<g fill="#c8b100">
			<path d="M30.7 28.7h3.2v1.8h-3.2zM30.6 41.9h3.3v1.7h-3.3z" />
		</g>
		<path d="M34.2 39.1c.3.2.5.4.5.5 0 .1-.1.2-.3.3-.2.2-.4.5-.3.6-.2-.2-.3-.4-.3-.6 0-.4.2-.7.4-.8" fill="#ed4c5c" />
		<path fill="#fff" d="M31.1 30.5h2.3v11.4h-2.3z" />
		<g fill="#ed4c5c">
			<path d="M28.7 34.7c.5-.2 1.4-.4 2.4-.4.3 0 .7 0 1.1.1 1.4.2 2.5.8 2.4 1.2l.5-1.2c.1-.5-1.1-1.1-2.6-1.4h-1.4c-1 0-1.9.1-2.4.3v1.4" />
			<path d="M33.4 36.2c.6 0 1.1-.2 1.1-.5 0-.2-.2-.5-.6-.7h-.6l.1 1.2M31.1 35.3c-.4.1-.7.2-.9.3-.1.1.3.5.9.8v-1.1" />
			<path d="M34.9 38.4c.1-.2-.6-.6-1.5-.9-.4-.1-.7-.3-1.2-.5-1.2-.5-2.2-1.2-2-1.4l-.2 1.2c-.1.2.7.8 1.9 1.4.4.2 1.1.5 1.5.6.7.2 1.3.7 1.2.8l.3-1.2M21.5 22.3c1.9 0 5.8.4 7.2 1.8-1.5 3.6-3.9 2.1-7.2 2.1-3.2 0-5.7 1.5-7.2-2.1 1.4-1.4 5.2-1.8 7.2-1.8" />
		</g>
		<g fill="#c8b100">
			<path d="M26.4 26.3c-1.2-.7-3-.8-4.9-.8-1.9 0-3.7.2-4.9.8L17 28c1.1.3 2.7.5 4.5.5 1.8 0 3.3-.2 4.5-.5l.4-1.7M28.1 22c-.4-.3-1.2-.6-1.9-.6-.3 0-.6 0-.9.1 0 0-.6-.8-2-.8-.5 0-.9.1-1.3.3v-.1c-.1-.2-.3-.4-.5-.4s-.5.3-.5.5v.1c-.4-.2-.8-.3-1.3-.3-1.4 0-2 .9-2 .8-.3-.1-.6-.1-.9-.1-4.6 0-2.3 3.1-2.3 3.1l.5-.6c-1.1-1.4-.1-2.2 1.9-2.2.3 0 .5 0 .7.1-.7 1 .6 1.9.6 1.9l.3-.5c-.7-.5-.8-2.2 1.2-2.2.5 0 .9.1 1.3.4 0 .1-.1 1.5-.2 1.7l.8.7.8-.7c-.1-.3-.2-1.6-.2-1.7.3-.2.8-.4 1.3-.4 2.1 0 2.1 1.7 1.2 2.2l.3.5s1.1-.9.6-1.9c.2 0 .5-.1.7-.1 2.4 0 2.5 1.8 1.9 2.2l.4.6c-.2 0 .9-1.4-.5-2.6" />
		</g>
		<path d="M20.9 20.1c0-.3.3-.6.6-.6.4 0 .6.3.6.6s-.3.6-.6.6-.6-.3-.6-.6" fill="#005bbf" />
		<path fill="#c8b100" d="M21.3 18.4v.3H21v.3h.3v1h-.4v.3h1.2l.1-.2-.1-.1h-.4v-1h.3v-.3h-.3v-.3z" />
		<path d="M21.5 28.3c-1.6 0-3-.2-4.1-.5 1.1-.3 2.5-.5 4.1-.5 1.6 0 3 .2 4.1.5-1 .3-2.5.5-4.1.5" fill="#ed4c5c" />
		<g fill="#fff">
			<path d="M21.6 45.6c-1.9 0-3.7-.5-5.3-1.2-1.2-.6-1.9-1.7-1.9-3v-4.8h14.4v4.8c0 1.3-.8 2.5-1.9 3-1.6.8-3.4 1.2-5.3 1.2M21.5 28.6h7.2v8h-7.2z" />
		</g>
		<path d="M21.6 41.4c0 1.9-1.6 3.4-3.6 3.4s-3.6-1.5-3.6-3.4v-4.8h7.2v4.8" fill="#ed4c5c" />
		<g fill="#c8b100">
			<path d="M15.9 44.2c.2.1.5.3.9.4v-8.2H16l-.1 7.8M14.3 41.3c0 1 .4 1.8.8 2.2v-7.1h-.8v4.9" />
		</g>
		<path d="M17.5 44.8h.8v-8.4h-.8v8.4" fill="#c7b500" />
		<path d="M19.1 44.6c.3-.1.7-.3.9-.4v-7.8h-.8l-.1 8.2" fill="#c8b100" />
		<path fill="#ed4c5c" d="M14.3 28.6h7.2v8h-7.2z" />
		<path d="M20.8 43.5c.4-.3.7-1 .8-1.8v-5.2h-.8v7" fill="#c8b100" />
		<g fill="#ed4c5c">
			<path d="M28.8 36.6v4.8c0 1.9-1.6 3.4-3.6 3.4s-3.6-1.5-3.6-3.4v-4.8h7.2M26.2 30c.3.6.3 2.1-.6 1.8.2.1.3.8.6 1.2.5.6 1.1.1 1-.6-.2-1.1-.1-1.8.1-2.9 0 .1.5.1.7-.1-.1.3-.2.7 0 .7-.2.3-.7.8-.8 1.1-.1.7 1 2-.2 2.3-.8.2-.3.8 0 1.1 0 0-.4 1.3-.2 1.2-.8.3-.6-.4-.6-.4.4-1.2-.7-1.3-.6-1.5-1-.1.1.9-.8.9-.2 0-.6.2-.6.2-1.1-.1-.5-1.1-.1-1 .3.1.6.6.6-.1 0 0-.5-.8.8-.8-.5 0-.8-.4-1-.9-.2.1-.5.6-1.6.7 0 0-.3-1.1 0-.9.4.2.6.2 1-.2-.2-.3-1.4-.7-1.2-1.4 0-.2.6-.5.6-.5-.1.5.2 1 .8 1 .8.1.5-.2.6-.4.1-.2.7.1.5-.4 0-.1-.7-.2-.5-.5.4-.5 1-.1 1.5.4M21.6 44.6l-.2-.5.2-.6.2.6-.2.5" />
		</g>
		<g fill="#c8b100">
			<path d="M16.5 30.3v.5h.2v.4h-.5v1h.3v2.2h-.6v1.1H20v-1.1h-.5v-2.2h.2v-1h-.5v-.4h.3v-.5h-1v.5h.2v.4h-.5V30h.3v-.5h-1.1v.5h.3v1.2h-.5v-.4h.2v-.5zM27.8 42.6v-5h-5.2v5l2.4 1.1h.3l2.5-1.1M25 38v1.7L23.3 38H25m-2.1.1 2 2-2 2v-4m.2 4.4 1.9-1.9v2.8l-1.9-.9m2.2.8v-2.8l1.9 1.9-1.9.9m2.1-1.2-2-2 2-2v4M25.3 38H27l-1.7 1.7V38" />
		</g>
		<path d="M19.2 36.5c0-1.5 1-2.6 2.3-2.6s2.3 1.2 2.3 2.6c0 1.4-1 2.6-2.3 2.6s-2.3-1.1-2.3-2.6" fill="#ed4c5c" />
		<path d="M19.9 36.5c0-1.1.7-1.9 1.6-1.9.9 0 1.6.9 1.6 1.9 0 1.1-.7 1.9-1.6 1.9-.8.1-1.6-.8-1.6-1.9" fill="#005bbf" />
		<g fill="#c8b100">
			<path d="m20.8 35.2-.4 1.1.3.1-.2.4h.6l-.2-.4.3-.1-.4-1.1M22.3 35.2l-.4 1.1.3.1-.2.4h.6l-.1-.4.3-.1-.5-1.1M21.6 36.5l-.5 1.1.3.1-.1.4h.5l-.1-.4.3-.1-.4-1.1" />
		</g>
	</symbol>
	<symbol fill="none" xmlns="http://www.w3.org/2000/svg" viewBox="0 0 16 16" id="usd">
		<g clip-path="url(#a)">
			<g clip-path="url(#b)">
				<g clip-path="url(#c)">
					<path d="M0 0h16v16H0V0z" fill="#19AB16">
					</path>
					<path fill-rule="evenodd" clip-rule="evenodd" d="M11.25 9.577c0 1.285-1.043 2.138-2.583 2.267V13H7.612v-1.168a5.748 5.748 0 0 1-2.862-1.157l.776-1.063c.692.537 1.346.888 2.135 1.005v-2.29C5.89 7.883 5.066 7.24 5.066 5.92c0-1.261 1.03-2.125 2.546-2.242V3h1.055v.701c.825.092 1.61.398 2.28.888l-.68 1.098a4.246 4.246 0 0 0-1.649-.748v2.22c1.844.444 2.632 1.157 2.632 2.418zM7.66 6.914V4.857c-.764.058-1.163.467-1.163.981 0 .49.23.806 1.163 1.075zm2.159 2.745c0-.526-.255-.841-1.2-1.11v2.115c.764-.059 1.2-.445 1.2-1.005z" fill="#fff">
					</path>
				</g>
			</g>
		</g>
		<defs>
			<clipPath id="a">
				<rect width="16" height="16" rx="8" fill="#fff">
				</rect>
			</clipPath>
			<clipPath id="b">
				<path fill="#fff" d="M0 0h16v16H0z">
				</path>
			</clipPath>
			<clipPath id="c">
				<path fill="#fff" d="M0 0h16v16H0z">
				</path>
			</clipPath>
		</defs>
	</symbol>
	<symbol fill="none" xmlns="http://www.w3.org/2000/svg" viewBox="0 0 16 16" id="zho">
		<g clip-path="url(#a)">
			<g clip-path="url(#b)">
				<g clip-path="url(#c)">
					<path fill="#F93939" d="M0 0h16v16H0z">
					</path>
					<path fill-rule="evenodd" clip-rule="evenodd" d="m5.865 7.712-1.568.825.298-1.747-1.267-1.237L5.081 5.3l.784-1.59.783 1.59 1.752.253L7.13 6.79l.302 1.745-1.567-.823zM9.6 3.2h1.067v1.067H9.6V3.2zm1.067 2.133h1.066V6.4h-1.066V5.333zm0 2.134h1.066v1.066h-1.066V7.467zM9.6 9.6h1.067v1.067H9.6V9.6z" fill="#FFDA2C">
					</path>
				</g>
			</g>
		</g>
		<defs>
			<clipPath id="a">
				<rect width="16" height="16" rx="8" fill="#fff">
				</rect>
			</clipPath>
			<clipPath id="b">
				<path fill="#fff" d="M0 0h16v16H0z">
				</path>
			</clipPath>
			<clipPath id="c">
				<path fill="#fff" d="M0 0h16v16H0z">
				</path>
			</clipPath>
		</defs>
	</symbol>
</svg>
